# xmcd
#
# Track frame offsets:
#	180
#	14436
#	28375
#	42886
#	57137
#	69920
#	84178
#	95588
#	110084
#	124536
#	141326
#	152820
#	166965
#	180350
#	191893
#	204037
#	214211
#	227002
#
# Disc length: 3187 seconds
#
# Revision: 1
# Processed by: cddbd v1.5.2PL0 Copyright (c) Steve Scherf et al.
# Submitted via: audiograbber 1.83.01
#
DISCID=f20c7112
DTITLE=Various Artist - Blues Festival CD 10
DYEAR=2005
DGENRE=Blues
TTITLE0=Bessie Smith - Mean Old Bedbug blues
TTITLE1=Muddy Watters - Rolling Stone
TTITLE2=Sonny Boy Willliamson - Doggin' my love Around
TTITLE3=Robert 'Barbecue Bob' Hicks - Barbecue blues
TTITLE4=Brownie Mc Ghee - Ain't no tellin'
TTITLE5=John Lee Hooker - Blues for big town
TTITLE6=Muddy Waters - Gypsy woman
TTITLE7=John Lee Hooker - Playing the races
TTITLE8=Mississipi John Hurt - Spike driver blues
TTITLE9=John Lee Hooker - Goin' mad blues
TTITLE10=Mahalia Jackson - I'm going to live teh live I sing about in my song
TTITLE11=Bessie Smith - Cake walking babies (from home)
TTITLE12=John Lee Hooker - Crawling king snake
TTITLE13=Brownie Mc Ghee - My barkin' bulldog blues
TTITLE14=T-bone walker - Too mach trouble blues
TTITLE15=John Lee Hooker - Feed her all night
TTITLE16=Bib Bill Broonzy - How you want it done
TTITLE17=Sonny Terry - Whoopin' the blues
EXTD=CD 10 de 10
EXTT0=
EXTT1=
EXTT2=
EXTT3=
EXTT4=
EXTT5=
EXTT6=
EXTT7=
EXTT8=
EXTT9=
EXTT10=
EXTT11=
EXTT12=
EXTT13=
EXTT14=
EXTT15=
EXTT16=
EXTT17=
PLAYORDER=
